<?xml version="1.0" encoding="UTF-8"?>
<svg version="1.1" xmlns="http://www.w3.org/2000/svg" width="200" height="200">
<path d="M0 0 C66 0 132 0 200 0 C200 66 200 132 200 200 C134 200 68 200 0 200 C0 134 0 68 0 0 Z " fill="#000000" transform="translate(0,0)"/>
<path d="M0 0 C1.12986328 -0.02900391 2.25972656 -0.05800781 3.42382812 -0.08789062 C16.28712766 -0.18416172 26.63940453 3.95400305 36.03125 12.81640625 C42.5999158 20.16610243 44.02558697 27.12317896 43.9074707 36.72973633 C43.9107563 38.40675125 43.9107563 38.40675125 43.91410828 40.11764526 C43.91641 43.7935801 43.89021946 47.46870393 43.86328125 51.14453125 C43.85835557 53.70423631 43.85505785 56.26394497 43.85331726 58.82365417 C43.84568906 64.17740232 43.82570202 69.53087738 43.79418945 74.88452148 C43.75379719 81.75575891 43.7364831 88.62684719 43.72688007 95.49818897 C43.71769316 102.04699208 43.69703087 108.59575788 43.67578125 115.14453125 C43.67068763 117.02442718 43.67068763 117.02442718 43.6654911 118.9423008 C43.65394736 122.47566475 43.63543337 126.00891704 43.61450195 129.54223633 C43.61181305 130.59421707 43.60912415 131.64619781 43.60635376 132.73005676 C43.59919846 133.69024719 43.59204315 134.65043762 43.58467102 135.63972473 C43.58039754 136.47461835 43.57612406 137.30951197 43.57172108 138.16970539 C43.4375 140.3125 43.4375 140.3125 42.4375 143.3125 C44.82822676 144.53153394 47.1639241 145.59499826 49.671875 146.5703125 C54.10534289 148.92497656 57.1793291 150.71788222 59.4375 155.3125 C61.17957252 165.81328653 60.22166246 176.74997092 59.4375 187.3125 C57.62475586 187.93261719 57.62475586 187.93261719 55.4375 188.3125 C53.10241711 186.81463718 51.1098785 185.33471637 49 183.5625 C48.38817871 183.06532471 47.77635742 182.56814941 47.14599609 182.0559082 C42.90591267 178.59224715 38.73736581 175.04176918 34.5625 171.5 C34.02085205 171.04375244 33.4792041 170.58750488 32.92114258 170.11743164 C30.63153191 168.18750107 28.36699933 166.24757155 26.1640625 164.21875 C24.27253777 162.57394589 22.70363549 161.37307913 20.4375 160.3125 C18.32847722 160.76337999 16.22113123 161.22653511 14.13134766 161.75952148 C-1.02100968 164.86991566 -19.06099893 164.01331246 -32.25 155.59765625 C-38.27112289 151.18795567 -42.72487178 146.27737225 -45.5625 139.3125 C-46.01353875 135.82469294 -46.01339858 132.36109652 -46.01416016 128.84765625 C-46.02584229 127.806129 -46.03752441 126.76460175 -46.04956055 125.69151306 C-46.08311511 122.25258127 -46.09388281 118.81408106 -46.1015625 115.375 C-46.11375008 112.97330578 -46.12623632 110.57161306 -46.13900757 108.16992188 C-46.16148016 103.13294063 -46.17103687 98.09611058 -46.17333984 93.05908203 C-46.17860763 86.63450611 -46.2298477 80.21120566 -46.29285622 73.78697205 C-46.33392453 68.82292855 -46.3429836 63.85918707 -46.34345627 58.89498901 C-46.34881101 56.52849964 -46.36554571 54.16200548 -46.39430618 51.79568481 C-46.5723944 35.80311751 -45.67168553 24.45008812 -35 11.875 C-24.90157283 2.66936108 -13.21185282 0.11040546 0 0 Z " fill="#020000" transform="translate(94.5625,4.6875)"/>
<path d="M0 0 C1.12986328 -0.02900391 2.25972656 -0.05800781 3.42382812 -0.08789062 C16.28712766 -0.18416172 26.63940453 3.95400305 36.03125 12.81640625 C42.5999158 20.16610243 44.02558697 27.12317896 43.9074707 36.72973633 C43.9107563 38.40675125 43.9107563 38.40675125 43.91410828 40.11764526 C43.91641 43.7935801 43.89021946 47.46870393 43.86328125 51.14453125 C43.85835557 53.70423631 43.85505785 56.26394497 43.85331726 58.82365417 C43.84568906 64.17740232 43.82570202 69.53087738 43.79418945 74.88452148 C43.75379719 81.75575891 43.7364831 88.62684719 43.72688007 95.49818897 C43.71769316 102.04699208 43.69703087 108.59575788 43.67578125 115.14453125 C43.67068763 117.02442718 43.67068763 117.02442718 43.6654911 118.9423008 C43.65394736 122.47566475 43.63543337 126.00891704 43.61450195 129.54223633 C43.61181305 130.59421707 43.60912415 131.64619781 43.60635376 132.73005676 C43.59919846 133.69024719 43.59204315 134.65043762 43.58467102 135.63972473 C43.58039754 136.47461835 43.57612406 137.30951197 43.57172108 138.16970539 C43.4375 140.3125 43.4375 140.3125 42.4375 143.3125 C44.82822676 144.53153394 47.1639241 145.59499826 49.671875 146.5703125 C54.10534289 148.92497656 57.1793291 150.71788222 59.4375 155.3125 C61.17957252 165.81328653 60.22166246 176.74997092 59.4375 187.3125 C57.62475586 187.93261719 57.62475586 187.93261719 55.4375 188.3125 C53.10241711 186.81463718 51.1098785 185.33471637 49 183.5625 C48.38817871 183.06532471 47.77635742 182.56814941 47.14599609 182.0559082 C42.90591267 178.59224715 38.73736581 175.04176918 34.5625 171.5 C34.02085205 171.04375244 33.4792041 170.58750488 32.92114258 170.11743164 C30.63153191 168.18750107 28.36699933 166.24757155 26.1640625 164.21875 C24.27253777 162.57394589 22.70363549 161.37307913 20.4375 160.3125 C18.32847722 160.76337999 16.22113123 161.22653511 14.13134766 161.75952148 C-1.02100968 164.86991566 -19.06099893 164.01331246 -32.25 155.59765625 C-38.27112289 151.18795567 -42.72487178 146.27737225 -45.5625 139.3125 C-46.01353875 135.82469294 -46.01339858 132.36109652 -46.01416016 128.84765625 C-46.02584229 127.806129 -46.03752441 126.76460175 -46.04956055 125.69151306 C-46.08311511 122.25258127 -46.09388281 118.81408106 -46.1015625 115.375 C-46.11375008 112.97330578 -46.12623632 110.57161306 -46.13900757 108.16992188 C-46.16148016 103.13294063 -46.17103687 98.09611058 -46.17333984 93.05908203 C-46.17860763 86.63450611 -46.2298477 80.21120566 -46.29285622 73.78697205 C-46.33392453 68.82292855 -46.3429836 63.85918707 -46.34345627 58.89498901 C-46.34881101 56.52849964 -46.36554571 54.16200548 -46.39430618 51.79568481 C-46.5723944 35.80311751 -45.67168553 24.45008812 -35 11.875 C-24.90157283 2.66936108 -13.21185282 0.11040546 0 0 Z M-32.3125 15.4375 C-40.99277176 25.09166095 -42.4213208 35.08196536 -42.1484375 47.578125 C-42.13721741 49.10795408 -42.12869056 50.63780503 -42.12271118 52.16766357 C-42.10003293 56.1531551 -42.04129962 60.13729013 -41.9744873 64.12225342 C-41.91260409 68.20501363 -41.885599 72.28799761 -41.85546875 76.37109375 C-41.79152865 84.35217823 -41.68941402 92.33216939 -41.5625 100.3125 C-40.0775 99.8175 -40.0775 99.8175 -38.5625 99.3125 C-38.8925 101.2925 -39.2225 103.2725 -39.5625 105.3125 C-40.2225 104.6525 -40.8825 103.9925 -41.5625 103.3125 C-41.71197492 108.13210794 -41.82023603 112.95033739 -41.89208984 117.77172852 C-41.92207242 119.4080356 -41.96287433 121.04418457 -42.01513672 122.67993164 C-42.57638956 135.01432432 -42.57638956 135.01432432 -37.09985352 145.75292969 C-35.01588998 147.86700926 -33.04910666 149.67497854 -30.5625 151.3125 C-29.5725 151.993125 -28.5825 152.67375 -27.5625 153.375 C-14.91627985 160.25563161 1.19934665 159.53780988 14.88671875 156.75 C21.44648207 155.62489511 21.44648207 155.62489511 24.40234375 157.67578125 C25.05332031 158.31902344 25.70429687 158.96226562 26.375 159.625 C30.25932898 163.28848084 34.27939034 166.6154304 38.5 169.875 C43.15549921 173.47969897 47.66522325 177.1586692 51.984375 181.16796875 C53.39107229 182.51875126 53.39107229 182.51875126 55.4375 182.3125 C57.64171069 168.1334933 57.64171069 168.1334933 53.85107422 154.96533203 C50.49971008 151.6969587 46.83486953 149.35945952 42.83984375 146.9609375 C40.85546875 145.66186523 40.85546875 145.66186523 39.4375 144.3125 C39.43359375 141.18359375 39.43359375 141.18359375 40.4375 137.3125 C40.52823562 135.52649489 40.56829374 133.73752609 40.5703125 131.94921875 C40.57160156 130.97919922 40.57289063 130.00917969 40.57421875 129.00976562 C40.57035156 128.01654297 40.56648438 127.02332031 40.5625 126 C40.56636719 125.01837891 40.57023437 124.03675781 40.57421875 123.02539062 C40.56588495 116.72920765 40.19167246 110.56319818 39.4375 104.3125 C39.1075 104.3125 38.7775 104.3125 38.4375 104.3125 C37.45501476 108.3652516 37.35590426 112.15111737 37.4375 116.3125 C34.64246166 114.91498083 34.51006502 113.32839791 33.4375 110.4375 C32.29446556 107.37452491 31.26637727 105.0558159 29.4375 102.3125 C30.38625 102.250625 31.335 102.18875 32.3125 102.125 C33.859375 101.7228125 33.859375 101.7228125 35.4375 101.3125 C36.74818333 98.86961372 36.74818333 98.86961372 37.4375 96.3125 C38.0975 95.9825 38.7575 95.6525 39.4375 95.3125 C39.5071572 86.56733642 39.56039077 77.82226905 39.59293652 69.07688808 C39.60856063 65.01559554 39.62973893 60.95449348 39.66381836 56.89331055 C39.69652862 52.97052716 39.71437748 49.04792646 39.72213173 45.12501717 C39.72765439 43.63195993 39.73843873 42.13891215 39.75469017 40.64593315 C39.77662048 38.54686118 39.77946056 36.4485342 39.77807617 34.34936523 C39.78473801 33.15689682 39.79139984 31.96442841 39.79826355 30.73582458 C38.90497241 22.25928775 33.94253115 16.18233153 27.63671875 10.765625 C11.12263932 -1.6840136 -17.62557013 2.2354026 -32.3125 15.4375 Z " fill="#AA4502" transform="translate(94.5625,4.6875)"/>
<path d="M0 0 C1.12986328 -0.02900391 2.25972656 -0.05800781 3.42382812 -0.08789062 C16.28712766 -0.18416172 26.63940453 3.95400305 36.03125 12.81640625 C42.57165425 20.13448052 44.02400867 27.02354291 43.828125 36.59375 C43.82246521 37.64784058 43.81680542 38.70193115 43.81097412 39.78796387 C43.78871734 43.12995254 43.73853977 46.47083947 43.6875 49.8125 C43.66742123 52.0885261 43.64917288 54.36456913 43.6328125 56.640625 C43.5888878 62.19828782 43.52208337 67.75531517 43.4375 73.3125 C43.1075 73.3125 42.7775 73.3125 42.4375 73.3125 C42.1075 67.7025 41.7775 62.0925 41.4375 56.3125 C41.1075 75.4525 40.7775 94.5925 40.4375 114.3125 C40.1075 114.3125 39.7775 114.3125 39.4375 114.3125 C39.1075 112.6625 38.7775 111.0125 38.4375 109.3125 C38.1075 111.6225 37.7775 113.9325 37.4375 116.3125 C34.4375 115.3125 34.4375 115.3125 33.3046875 113.1328125 C32.81355469 111.79863281 32.81355469 111.79863281 32.3125 110.4375 C31.97992188 109.55320312 31.64734375 108.66890625 31.3046875 107.7578125 C30.66333675 105.94931895 30.04429319 104.13287956 29.4375 102.3125 C30.38625 102.085625 31.335 101.85875 32.3125 101.625 C35.63073388 100.62166286 35.63073388 100.62166286 36.8125 97.6875 C37.01875 96.90375 37.225 96.12 37.4375 95.3125 C38.0975 95.3125 38.7575 95.3125 39.4375 95.3125 C39.37615986 86.56708029 39.29896148 77.82198351 39.20178509 69.07688808 C39.15714951 65.01571595 39.11787868 60.95464255 39.09106445 56.89331055 C39.06496306 52.97033998 39.02451316 49.04775076 38.97431374 45.12501717 C38.95769103 43.63203759 38.94614821 42.13899213 38.93988609 40.64593315 C38.93019433 38.54667513 38.90207774 36.44838265 38.86987305 34.34936523 C38.85876999 33.15689682 38.84766693 31.96442841 38.83622742 30.73582458 C37.94534039 23.08700155 34.00455362 17.45797092 28.4375 12.3125 C16.80444426 3.76576517 2.1741203 4.45467724 -11.59375 5.5546875 C-21.27143875 7.05534177 -28.67417221 12.55043169 -34.8671875 19.921875 C-37.39034145 23.4798709 -39.09172844 27.21949757 -40.5625 31.3125 C-41.5525 31.3125 -42.5425 31.3125 -43.5625 31.3125 C-43.8925 66.9525 -44.2225 102.5925 -44.5625 139.3125 C-44.8925 139.3125 -45.2225 139.3125 -45.5625 139.3125 C-45.72673579 125.34266116 -45.84934052 111.37297413 -45.9251852 97.40236473 C-45.96160087 90.91405964 -46.01093886 84.42640652 -46.09057617 77.93847656 C-46.1670505 71.66845993 -46.20857787 65.39906744 -46.2266407 59.12862015 C-46.23950054 56.74533905 -46.26461204 54.36208924 -46.3026104 51.97907639 C-46.54888333 35.88338541 -45.73705084 24.53550315 -35 11.875 C-24.90157283 2.66936108 -13.21185282 0.11040546 0 0 Z " fill="#AA4503" transform="translate(94.5625,4.6875)"/>
<path d="M0 0 C1.32 0 2.64 0 4 0 C5.41625977 1.63647461 5.41625977 1.63647461 6.69140625 3.90234375 C7.16126953 4.70994141 7.63113281 5.51753906 8.11523438 6.34960938 C8.59283203 7.20361328 9.07042969 8.05761719 9.5625 8.9375 C10.51413814 10.61783562 11.47343581 12.29386315 12.44140625 13.96484375 C12.86107666 14.7137085 13.28074707 15.46257324 13.71313477 16.23413086 C14.96492111 18.31078249 14.96492111 18.31078249 18 19 C20.00501615 17.70774204 20.00501615 17.70774204 21.9375 15.8125 C22.64648438 15.16667969 23.35546875 14.52085938 24.0859375 13.85546875 C26.08510458 11.97055797 26.08510458 11.97055797 28.0625 9.625 C30.83881747 7.29647567 33.46427381 7.27197894 37 7 C33.78967485 11.46283838 30.46037148 15.62099765 26.6875 19.625 C23.63195336 22.98319126 22 25.27751372 22 30 C22.66 30.33 23.32 30.66 24 31 C25.13350819 33.10918613 26.1848312 35.26306623 27.1875 37.4375 C27.73792969 38.61183594 28.28835937 39.78617188 28.85546875 40.99609375 C29.23316406 41.98738281 29.61085938 42.97867188 30 44 C29.67 44.66 29.34 45.32 29 46 C28.34 45.67 27.68 45.34 27 45 C26.67 45.66 26.34 46.32 26 47 C22.37 43.04 18.74 39.08 15 35 C11.16720975 37.5551935 7.97567786 39.74594399 4.625 42.75 C3.59246094 43.67039062 3.59246094 43.67039062 2.5390625 44.609375 C1.77722656 45.29773438 1.77722656 45.29773438 1 46 C0.505 44.515 0.505 44.515 0 43 C-0.66 43 -1.32 43 -2 43 C0.71477722 37.11798269 4.29968017 32.43919095 9 28 C7.25225169 23.07116483 4.50572384 18.89387847 1.65820312 14.55273438 C0.71407812 13.07057806 -0.15013759 11.53814604 -1 10 C-0.67 9.34 -0.34 8.68 0 8 C-0.39938767 5.90178785 -0.39938767 5.90178785 -1 4 C-0.34 3.67 0.32 3.34 1 3 C0.67 2.01 0.34 1.02 0 0 Z " fill="#AD4600" transform="translate(58,42)"/>
<path d="M0 0 C1.32 0.66 2.64 1.32 4 2 C4.66 1.34 5.32 0.68 6 0 C9.3 3.63 12.6 7.26 16 11 C17.32 10.34 18.64 9.68 20 9 C20.99 8.67 21.98 8.34 23 8 C21.11639082 13.78537106 21.11639082 13.78537106 19.72265625 16.35546875 C18.67166851 19.0806798 18.67166851 19.0806798 20.30078125 21.7890625 C21.29658203 23.19285156 21.29658203 23.19285156 22.3125 24.625 C25.94479297 29.83437892 25.94479297 29.83437892 27 33 C24.00779732 31.63629701 21.70973471 30.05091917 19.25 27.875 C18.63640625 27.33617188 18.0228125 26.79734375 17.390625 26.2421875 C16.93171875 25.83226563 16.4728125 25.42234375 16 25 C11.55208302 27.134624 8.13631384 29.83297497 4.6875 33.375 C-4.14285714 42 -4.14285714 42 -8 42 C-7.03155702 35.49759714 -3.90794793 32.52560312 0.80078125 28.08984375 C3.11548281 25.89026056 5.09792095 23.56367177 7 21 C5.52202738 17.32943063 3.52384523 15.58914217 0.375 13.25 C-0.44226563 12.63640625 -1.25953125 12.0228125 -2.1015625 11.390625 C-2.72804688 10.93171875 -3.35453125 10.4728125 -4 10 C-3.360625 9.87625 -2.72125 9.7525 -2.0625 9.625 C-1.381875 9.41875 -0.70125 9.2125 0 9 C0.33 8.34 0.66 7.68 1 7 C1.66 7.33 2.32 7.66 3 8 C2.01 5.36 1.02 2.72 0 0 Z " fill="#AA4500" transform="translate(105,47)"/>
<path d="M0 0 C0.33 1.32 0.66 2.64 1 4 C0.43152344 4.3403125 -0.13695313 4.680625 -0.72265625 5.03125 C-9.76329521 10.70617529 -15.26222105 16.97068008 -19 27 C-19.99 27 -20.98 27 -22 27 C-22.33 62.64 -22.66 98.28 -23 135 C-23.33 135 -23.66 135 -24 135 C-24.16423579 121.03016116 -24.28684052 107.06047413 -24.3626852 93.08986473 C-24.39910087 86.60155964 -24.44843886 80.11390652 -24.52807617 73.62597656 C-24.6045505 67.35595993 -24.64607787 61.08656744 -24.6641407 54.81612015 C-24.67700054 52.43283905 -24.70211204 50.04958924 -24.7401104 47.66657639 C-24.98728592 31.51189502 -24.33504648 19.7598838 -13 7.375 C-4.86534335 0 -4.86534335 0 0 0 Z " fill="#8B3805" transform="translate(73,9)"/>
<path d="M0 0 C0.66 0.33 1.32 0.66 2 1 C2.76132995 12.12072625 3.14029352 23.16904243 3.09765625 34.31640625 C3.09578323 35.79426525 3.09436353 37.27212489 3.09336853 38.74998474 C3.08961279 42.57532572 3.079845 46.40062663 3.06866455 50.22595215 C3.05829799 54.15518655 3.05383881 58.08442764 3.04882812 62.01367188 C3.03821387 69.6757992 3.02122494 77.33789392 3 85 C1.02 85.495 1.02 85.495 -1 86 C-0.67 57.62 -0.34 29.24 0 0 Z " fill="#B54900" transform="translate(135,60)"/>
<path d="M0 0 C1.10730469 -0.01998047 2.21460938 -0.03996094 3.35546875 -0.06054688 C11.18463203 -0.0559469 20.29171522 0.60421522 26.125 6.4375 C21.96177768 7.34254833 18.95524424 7.52671131 14.8125 6.5 C4.73182117 4.23068945 -6.9660353 4.3656871 -16.9296875 7.09765625 C-19.1938304 7.49319929 -20.70495044 7.13327822 -22.875 6.4375 C-21.875 3.4375 -21.875 3.4375 -20.26123047 2.50366211 C-13.48905528 0.20951258 -7.11137193 -0.04521682 0 0 Z " fill="#A44203" transform="translate(94.875,4.5625)"/>
<path d="M0 0 C0.33 0 0.66 0 1 0 C1 28.05 1 56.1 1 85 C0.67 85 0.34 85 0 85 C-0.495 82.525 -0.495 82.525 -1 80 C-1.33 82.31 -1.66 84.62 -2 87 C-5 86 -5 86 -6.1328125 83.8203125 C-6.62394531 82.48613281 -6.62394531 82.48613281 -7.125 81.125 C-7.45757812 80.24070312 -7.79015625 79.35640625 -8.1328125 78.4453125 C-8.77416325 76.63681895 -9.39320681 74.82037956 -10 73 C-9.05125 72.773125 -8.1025 72.54625 -7.125 72.3125 C-3.80676612 71.30916286 -3.80676612 71.30916286 -2.625 68.375 C-2.41875 67.59125 -2.2125 66.8075 -2 66 C-1.34 66 -0.68 66 0 66 C0 44.22 0 22.44 0 0 Z " fill="#582000" transform="translate(134,34)"/>
<path d="M0 0 C1.2065625 0.0309375 1.2065625 0.0309375 2.4375 0.0625 C2.4375 1.0525 2.4375 2.0425 2.4375 3.0625 C3.7575 3.3925 5.0775 3.7225 6.4375 4.0625 C6.4375 8.3525 6.4375 12.6425 6.4375 17.0625 C2.4375 18.0625 2.4375 18.0625 -0.25 16.8125 C-2.5625 15.0625 -2.5625 15.0625 -3.5625 12.0625 C-3.65588218 10.18936336 -3.69244843 8.31295638 -3.6875 6.4375 C-3.69007812 5.45523438 -3.69265625 4.47296875 -3.6953125 3.4609375 C-3.51067197 0.12654681 -3.35494702 0.08182798 0 0 Z " fill="#A64300" transform="translate(80.5625,115.9375)"/>
<path d="M0 0 C1.8125 0.0625 1.8125 0.0625 4 1 C5.87809964 4.36762694 7.08409789 6.79459686 6.8125 10.6875 C6.03154326 12.91022302 5.14371836 14.94130695 4 17 C0.125 15.125 0.125 15.125 -1 14 C-1.16407956 9.15965284 -0.95348275 4.76741373 0 0 Z " fill="#A84400" transform="translate(57,107)"/>
<path d="M0 0 C0.66 0 1.32 0 2 0 C2.18451025 13.6332574 2.18451025 13.6332574 1 20 C-2 19 -2 19 -3.1328125 16.8203125 C-3.46023437 15.93085937 -3.78765625 15.04140625 -4.125 14.125 C-4.45757812 13.24070312 -4.79015625 12.35640625 -5.1328125 11.4453125 C-5.77416325 9.63681895 -6.39320681 7.82037956 -7 6 C-5.5459375 5.62875 -5.5459375 5.62875 -4.0625 5.25 C-2.5465625 4.63125 -2.5465625 4.63125 -1 4 C-0.03122943 1.96756452 -0.03122943 1.96756452 0 0 Z " fill="#A54200" transform="translate(131,101)"/>
<path d="M0 0 C1.65 0.33 3.3 0.66 5 1 C5.62608696 9.95652174 5.62608696 9.95652174 3.125 14.125 C1 16 1 16 -1 16 C-2.59712091 11.20863728 -2.58050244 6.74150731 -1 2 C-0.67 1.34 -0.34 0.68 0 0 Z " fill="#A94400" transform="translate(110,113)"/>
<path d="M0 0 C2.0625 1.4375 2.0625 1.4375 4 4 C4.15125743 8.18983079 3.31903646 12.04289063 2 16 C0.02 15.34 -1.96 14.68 -4 14 C-3.46148032 8.72250715 -2.22656164 4.74354436 0 0 Z " fill="#A04000" transform="translate(70,110)"/>
<path d="M0 0 C3.0625 -0.25 3.0625 -0.25 6 0 C7 1 7 1 7.625 3.6875 C7 7 7 7 4.9921875 8.73046875 C2.70201258 10.24169703 0.39417788 11.66040047 -2 13 C-2.05416188 11.39620659 -2.09286638 9.79188594 -2.125 8.1875 C-2.14820312 7.29417969 -2.17140625 6.40085937 -2.1953125 5.48046875 C-2 3 -2 3 0 0 Z " fill="#A94400" transform="translate(92,117)"/>
<path d="M0 0 C-0.33 3.63 -0.66 7.26 -1 11 C-2.65 11.33 -4.3 11.66 -6 12 C-6.66 8.7 -7.32 5.4 -8 2 C-5 0 -5 0 0 0 Z " fill="#AC4500" transform="translate(102,129)"/>
<path d="M0 0 C0.66 0 1.32 0 2 0 C4.44173239 2.98433958 4.99433197 4.67692223 5.0625 8.5625 C3.71644996 12.91736777 1.94162349 13.90339176 -2 16 C-1.85936865 13.70800823 -1.71234057 11.41640814 -1.5625 9.125 C-1.48128906 7.84882812 -1.40007812 6.57265625 -1.31640625 5.2578125 C-1 2 -1 2 0 0 Z " fill="#A54200" transform="translate(96,95)"/>
<path d="M0 0 C2.63167197 5.26334395 0.34567711 11.59326159 -1 17 C-3 16 -3 16 -3.9921875 13.41796875 C-4.28351563 12.35191406 -4.57484375 11.28585938 -4.875 10.1875 C-5.18179688 9.12917969 -5.48859375 8.07085937 -5.8046875 6.98046875 C-6 4 -6 4 -4.1953125 1.61328125 C-2 0 -2 0 0 0 Z " fill="#A44200" transform="translate(91,94)"/>
<path d="M0 0 C0.66 0 1.32 0 2 0 C2 0.66 2 1.32 2 2 C2.99 2 3.98 2 5 2 C5.25 4.8125 5.25 4.8125 5 8 C3.125 9.875 3.125 9.875 1 11 C0.34 11 -0.32 11 -1 11 C-3.07036536 6.61569689 -3.07036536 6.61569689 -2.75 3.8125 C-2 2 -2 2 0 0 Z " fill="#A64300" transform="translate(120,111)"/>
<path d="M0 0 C0.125 2.875 0.125 2.875 0 6 C-0.66 6.66 -1.32 7.32 -2 8 C-2.37322427 11.10756015 -2.37322427 11.10756015 -2.4140625 14.7578125 C-2.43342865 15.42086395 -2.4527948 16.08391541 -2.4727478 16.76705933 C-2.53255954 18.88624177 -2.57893388 21.0054785 -2.625 23.125 C-2.66317845 24.56122169 -2.70223011 25.99742045 -2.7421875 27.43359375 C-2.83826125 30.95551936 -2.92228642 34.47761608 -3 38 C-3.33 38 -3.66 38 -4 38 C-4 25.79 -4 13.58 -4 1 C-2 0 -2 0 0 0 Z " fill="#973C00" transform="translate(56,104)"/>
<path d="M0 0 C2.475 0.495 2.475 0.495 5 1 C6.25 7.625 6.25 7.625 4 11 C3.34 11 2.68 11 2 11 C-0.67927341 6.98108988 -0.15601248 4.75838077 0 0 Z " fill="#9D3F00" transform="translate(78,135)"/>
<path d="M0 0 C1.32 0 2.64 0 4 0 C4.33 3.3 4.66 6.6 5 10 C1 8 1 8 -1 6 C-1.1875 3.4375 -1.1875 3.4375 -1 1 C-0.67 0.67 -0.34 0.34 0 0 Z " fill="#9A3D00" transform="translate(71,129)"/>
<path d="M0 0 C0.99 0 1.98 0 3 0 C2.75 3.375 2.75 3.375 2 7 C-0.0625 8.4375 -0.0625 8.4375 -2 9 C-2.125 5.625 -2.125 5.625 -2 2 C-1.34 1.34 -0.68 0.68 0 0 Z " fill="#9C3E00" transform="translate(89,135)"/>
<path d="M0 0 C-1.44077046 3.36179774 -3.24750021 5.59156268 -6 8 C-6.66 8 -7.32 8 -8 8 C-7.6641593 4.89347355 -7.40950721 3.39585697 -5.125 1.1875 C-3 0 -3 0 0 0 Z " fill="#963B00" transform="translate(64,127)"/>
<path d="M0 0 C1.32 0.33 2.64 0.66 4 1 C3.38722388 3.96175123 2.74627478 5.38058783 1 8 C0.01 8 -0.98 8 -2 8 C-1.125 2.25 -1.125 2.25 0 0 Z " fill="#9E4108" transform="translate(52,28)"/>
<path d="M0 0 C1.37058195 4.11174586 0.75640862 6.73660595 0 11 C-0.99 11.495 -0.99 11.495 -2 12 C-2.05395478 10.37536158 -2.09277195 8.75021459 -2.125 7.125 C-2.14820313 6.22007813 -2.17140625 5.31515625 -2.1953125 4.3828125 C-2 2 -2 2 0 0 Z " fill="#B84B00" transform="translate(52,34)"/>
<path d="M0 0 C1.32 0 2.64 0 4 0 C4.33 1.32 4.66 2.64 5 4 C4.34 4 3.68 4 3 4 C3 4.66 3 5.32 3 6 C2.01 6.33 1.02 6.66 0 7 C-0.33 6.01 -0.66 5.02 -1 4 C-0.34 3.67 0.32 3.34 1 3 C0.67 2.01 0.34 1.02 0 0 Z " fill="#732B00" transform="translate(58,42)"/>
<path d="M0 0 C0.125 2.875 0.125 2.875 0 6 C-0.66 6.66 -1.32 7.32 -2 8 C-4 5 -4 5 -4 1 C-2 0 -2 0 0 0 Z " fill="#7F3100" transform="translate(56,104)"/>
<path d="M0 0 C0.66 0 1.32 0 2 0 C2 2.31 2 4.62 2 7 C1.01 7.33 0.02 7.66 -1 8 C-0.67 5.36 -0.34 2.72 0 0 Z " fill="#903800" transform="translate(65,128)"/>
<path d="M0 0 C0.66 0 1.32 0 2 0 C2 1.65 2 3.3 2 5 C0.68 5.33 -0.64 5.66 -2 6 C-1.125 1.125 -1.125 1.125 0 0 Z " fill="#8B3600" transform="translate(117,126)"/>
</svg>
